<svg width="25" height="25" viewBox="0 0 25 25" fill="none" xmlns="http://www.w3.org/2000/svg">
<g clip-path="url(#clip0_51_1172)">
<path d="M9.50296 19.5677C9.58422 19.5273 9.65258 19.4649 9.70037 19.3877C9.74815 19.3105 9.77347 19.2215 9.77347 19.1307L9.77347 15.2963L24.5869 12.9823C24.702 12.9644 24.8069 12.9059 24.8826 12.8174C24.9584 12.729 25 12.6163 25 12.4999L25 12.496C24.999 12.3789 24.956 12.2661 24.8789 12.1781C24.8017 12.0901 24.6955 12.0328 24.5796 12.0165L9.77347 9.93495L9.77347 5.86904C9.77347 5.77836 9.74822 5.68947 9.70054 5.61234C9.65287 5.5352 9.58466 5.47286 9.50355 5.43231C9.42245 5.39176 9.33165 5.37459 9.24134 5.38273C9.15102 5.39088 9.06476 5.42401 8.99222 5.47842L0.195364 12.1098C-0.0203593 12.2716 -0.0641082 12.5776 0.0977074 12.7933C0.125482 12.8303 0.158361 12.8632 0.195364 12.891L8.99222 19.5218C9.06472 19.5761 9.15088 19.6091 9.24108 19.6172C9.33128 19.6254 9.42195 19.6082 9.50296 19.5677Z" fill="white"/>
</g>
<defs>
<clipPath id="clip0_51_1172">
<rect width="25" height="25" fill="white" transform="translate(25) rotate(90)"/>
</clipPath>
</defs>
</svg>
