<svg width="46" height="46" viewBox="0 0 46 46" fill="none" xmlns="http://www.w3.org/2000/svg">
<g clip-path="url(#clip0_62_319)">
<path d="M40.7292 7.66669H16.0425C14.5839 7.66669 13.179 8.2781 12.1862 9.34569L0.385233 22.0206C0.136767 22.2862 -0.00146484 22.6363 -0.00146484 23C-0.00146484 23.3637 0.136767 23.7138 0.385233 23.9794L12.1862 36.6524C12.6792 37.1822 13.2761 37.6048 13.9395 37.894C14.6029 38.1832 15.3188 38.3327 16.0425 38.3334H40.7292C42.1268 38.3323 43.4668 37.7767 44.4551 36.7884C45.4433 35.8002 45.999 34.4601 46 33.0625V12.9375C45.999 11.5399 45.4433 10.1999 44.4551 9.2116C43.4668 8.22335 42.1268 7.6677 40.7292 7.66669ZM37.3405 28.4031C37.6867 28.7755 37.8707 29.2701 37.8522 29.7782C37.8337 30.2862 37.6141 30.7661 37.2418 31.1123C36.8694 31.4585 36.3748 31.6426 35.8667 31.6241C35.3587 31.6055 34.8787 31.386 34.5326 31.0136L29.7083 25.8156L24.8822 31.0117C24.7113 31.1967 24.5055 31.3461 24.2766 31.4513C24.0478 31.5565 23.8004 31.6154 23.5487 31.6247C23.2971 31.6339 23.046 31.5933 22.8101 31.5053C22.5741 31.4172 22.3579 31.2833 22.1739 31.1114C21.8015 30.7651 21.5818 30.2851 21.5631 29.7769C21.5445 29.2687 21.7283 28.7739 22.0742 28.4012L27.094 23L22.0761 17.5969C21.73 17.2246 21.5459 16.73 21.5644 16.2219C21.5829 15.7138 21.8025 15.2339 22.1749 14.8877C22.5472 14.5416 23.0418 14.3575 23.5499 14.376C24.058 14.3945 24.5379 14.6141 24.8841 14.9864L29.7102 20.1825L34.5364 14.9864C34.8882 14.6379 35.3611 14.4388 35.8563 14.4309C36.3514 14.4231 36.8305 14.607 37.1932 14.9441C37.5559 15.2813 37.7741 15.7457 37.8023 16.2401C37.8305 16.7346 37.6664 17.2207 37.3443 17.5969L32.3227 23L37.3405 28.4031Z" fill="white"/>
</g>
<defs>
<clipPath id="clip0_62_319">
<rect width="46" height="46" fill="white"/>
</clipPath>
</defs>
</svg>
