<svg width="24" height="24" viewBox="0 0 24 24" fill="none" xmlns="http://www.w3.org/2000/svg">
<path d="M17.5789 8.53331L13.7263 21.3755L24 8.53331H17.5789ZM6.42108 8.53331H0L10.2737 21.3755L6.42108 8.53331ZM23.7639 7.11764L18.6491 2.00287C18.5838 1.93758 18.5063 1.8858 18.421 1.85046C18.3357 1.81513 18.2443 1.79695 18.1519 1.79695H15.5475L17.5428 7.11764H23.7639ZM6.45717 7.11764L8.45241 1.79695H5.84803C5.66156 1.79695 5.48269 1.87102 5.35083 2.00287L0.236109 7.11764H6.45717ZM16.1009 8.53331H7.89909L12 22.203L16.1009 8.53331ZM7.96912 7.11764H16.0309L14.0356 1.79695H9.96441L7.96912 7.11764Z" fill="white"/>
</svg>
