<svg width="67" height="67" viewBox="0 0 67 67" fill="none" xmlns="http://www.w3.org/2000/svg">
<path d="M64.2084 53.0417C64.2084 53.7821 63.9143 54.4921 63.3908 55.0157C62.8672 55.5392 62.1572 55.8333 61.4168 55.8333H27.9168C27.1764 55.8333 26.4663 55.5392 25.9427 55.0157C25.4192 54.4921 25.1251 53.7821 25.1251 53.0417C25.1251 48.5993 26.8898 44.3389 30.031 41.1976C33.1723 38.0564 37.4327 36.2917 41.8751 36.2917H47.4584C51.9008 36.2917 56.1612 38.0564 59.3025 41.1976C62.4437 44.3389 64.2084 48.5993 64.2084 53.0417ZM44.6668 11.1667C42.4582 11.1667 40.2992 11.8216 38.4629 13.0486C36.6265 14.2756 35.1953 16.0196 34.3501 18.06C33.5049 20.1005 33.2838 22.3457 33.7146 24.5118C34.1455 26.678 35.209 28.6677 36.7707 30.2294C38.3324 31.791 40.3221 32.8546 42.4882 33.2854C44.6544 33.7163 46.8996 33.4952 48.94 32.65C50.9805 31.8048 52.7245 30.3735 53.9515 28.5372C55.1785 26.7008 55.8334 24.5419 55.8334 22.3333C55.8334 19.3717 54.6569 16.5315 52.5628 14.4373C50.4686 12.3431 47.6283 11.1667 44.6668 11.1667ZM19.5417 11.1667C17.3332 11.1667 15.1742 11.8216 13.3379 13.0486C11.5015 14.2756 10.0703 16.0196 9.22509 18.06C8.37992 20.1005 8.15878 22.3457 8.58965 24.5118C9.02051 26.678 10.084 28.6677 11.6457 30.2294C13.2074 31.791 15.1971 32.8546 17.3632 33.2854C19.5294 33.7163 21.7746 33.4952 23.8151 32.65C25.8555 31.8048 27.5995 30.3735 28.8265 28.5372C30.0535 26.7008 30.7084 24.5419 30.7084 22.3333C30.7084 19.3717 29.5319 16.5315 27.4378 14.4373C25.3436 12.3431 22.5033 11.1667 19.5417 11.1667ZM19.5417 53.0417C19.5376 50.1093 20.1153 47.2053 21.2414 44.4978C22.3676 41.7903 24.0197 39.3332 26.1022 37.2687C24.398 36.6253 22.5917 36.2943 20.7701 36.2917H18.3134C14.1991 36.299 10.2554 37.9367 7.34609 40.846C4.43681 43.7553 2.79913 47.699 2.79175 51.8133V53.0417C2.79175 53.7821 3.08587 54.4921 3.60941 55.0157C4.13295 55.5392 4.84302 55.8333 5.58342 55.8333H20.0442C19.7192 54.9381 19.5493 53.994 19.5417 53.0417Z" fill="white"/>
</svg>
