<svg width="54" height="54" viewBox="0 0 54 54" fill="none" xmlns="http://www.w3.org/2000/svg">
<path d="M31.7554 19.0586C33.3758 18.1957 34.7313 16.9088 35.6771 15.3353C36.6229 13.7618 37.1233 11.9609 37.125 10.125C37.125 4.54106 32.5839 0 27 0C21.4161 0 16.875 4.54106 16.875 10.125C16.875 13.9894 19.0519 17.3526 22.2446 19.0586C19.3126 19.659 16.5221 20.8137 14.0231 22.4606C18.7481 23.3213 23.2031 25.3294 27 28.2825C30.7969 25.3294 35.2519 23.3213 39.9769 22.4606C37.4779 20.8137 34.6874 19.659 31.7554 19.0586ZM47.8119 31.7824H43.875C43.4274 31.7824 42.9982 31.9602 42.6818 32.2766C42.3653 32.5931 42.1875 33.0223 42.1875 33.4699V39.0943C42.1875 39.5419 42.3653 39.9711 42.6818 40.2876C42.9982 40.604 43.4274 40.7818 43.875 40.7818H47.8119C50.2301 40.7818 52.3125 38.6893 52.3125 36.2812C52.3107 35.0883 51.8359 33.9448 50.9922 33.1014C50.1486 32.2581 49.0049 31.7837 47.8119 31.7824ZM11.8125 39.0926V33.4682C11.8125 33.0206 11.6347 32.5914 11.3182 32.2749C11.0018 31.9585 10.5726 31.7807 10.125 31.7807H6.18806C4.99485 31.782 3.85089 32.2566 3.00716 33.1003C2.16344 33.9441 1.68884 35.088 1.6875 36.2812C1.6875 38.7146 3.77156 40.7818 6.18806 40.7818H10.125C10.5726 40.7818 11.0018 40.604 11.3182 40.2876C11.6347 39.9711 11.8125 39.5402 11.8125 39.0926Z" fill="white"/>
<path d="M38.8125 39.0994V33.4631C38.8125 30.6788 41.0906 28.4006 43.875 28.4006H47.25V27C47.25 26.0719 46.4906 25.3125 45.5625 25.3125C44.0944 25.3125 42.6094 25.4306 41.1412 25.6669C36.5762 26.4266 32.2857 28.3556 28.6875 31.266V53.7604C29.2714 53.5596 29.8282 53.2541 30.3244 52.8356C34.56 49.2412 39.9769 47.25 45.5625 47.25C46.4906 47.25 47.25 46.4906 47.25 45.5625V44.1619H43.875C41.0906 44.1619 38.8125 41.8838 38.8125 39.0994ZM8.4375 25.3125C7.50937 25.3125 6.75 26.0719 6.75 27V28.4006H10.125C12.9094 28.4006 15.1875 30.6788 15.1875 33.4631V39.0994C15.1875 41.8838 12.9094 44.1619 10.125 44.1619H6.75V45.5625C6.75 46.4906 7.50937 47.25 8.4375 47.25C14.0231 47.25 19.44 49.2412 23.6756 52.8356C24.1717 53.2541 24.7286 53.5596 25.3125 53.7621V31.2677C21.7145 28.3568 17.424 26.4272 12.8587 25.6669C11.3906 25.4306 9.90563 25.3125 8.4375 25.3125Z" fill="white"/>
</svg>
