<svg width="56" height="56" viewBox="0 0 56 56" fill="none" xmlns="http://www.w3.org/2000/svg">
<path d="M28 46C31.3137 46 34 43.3137 34 40C34 36.6863 31.3137 34 28 34C24.6863 34 22 36.6863 22 40C22 43.3137 24.6863 46 28 46Z" fill="white"/>
<path d="M32 46H24C20.692 46 18 48.692 18 52V54C18 54.5304 18.2107 55.0391 18.5858 55.4142C18.9609 55.7893 19.4696 56 20 56H36C36.5304 56 37.0391 55.7893 37.4142 55.4142C37.7893 55.0391 38 54.5304 38 54V52C38 48.692 35.308 46 32 46Z" fill="white"/>
<path d="M46 42C49.3137 42 52 39.3137 52 36C52 32.6863 49.3137 30 46 30C42.6863 30 40 32.6863 40 36C40 39.3137 42.6863 42 46 42Z" fill="white"/>
<path d="M10 42C13.3137 42 16 39.3137 16 36C16 32.6863 13.3137 30 10 30C6.68629 30 4 32.6863 4 36C4 39.3137 6.68629 42 10 42Z" fill="white"/>
<path d="M44 2V24H37.658C34.542 24 31.618 25.212 29.414 27.414L28 28.828L26.586 27.414C25.5058 26.3282 24.221 25.4674 22.8059 24.8814C21.3908 24.2954 19.8736 23.9958 18.342 24H12V2C11.4696 2 10.9609 2.21071 10.5858 2.58579C10.2107 2.96086 10 3.46957 10 4V24C10 24.5304 10.2107 25.0391 10.5858 25.4142C10.9609 25.7893 11.4696 26 12 26H18C21.19 26 24.48 27.308 26.586 29.414C26.7713 29.6004 26.9916 29.7483 27.2343 29.8492C27.477 29.9501 27.7372 30.0021 28 30.0021C28.2628 30.0021 28.523 29.9501 28.7657 29.8492C29.0084 29.7483 29.2287 29.6004 29.414 29.414C31.52 27.308 34.81 26 38 26H44C44.5304 26 45.0391 25.7893 45.4142 25.4142C45.7893 25.0391 46 24.5304 46 24V4C46 3.46957 45.7893 2.96086 45.4142 2.58579C45.0391 2.21071 44.5304 2 44 2Z" fill="white"/>
<path d="M37.656 0C34.036 0 30.562 1.44 28 4C25.4391 1.43897 21.9657 0.000132715 18.344 0H14V22H18.344C21.964 22 25.438 23.44 28 26C30.56 23.44 34.034 22 37.656 22H42V0H37.656ZM25.708 19.708C25.6154 19.8016 25.5051 19.8759 25.3836 19.9266C25.2621 19.9774 25.1317 20.0035 25 20.0035C24.8683 20.0035 24.7379 19.9774 24.6164 19.9266C24.4949 19.8759 24.3846 19.8016 24.292 19.708C23.197 18.6186 21.7166 18.0049 20.172 18H17C16.7348 18 16.4804 17.8946 16.2929 17.7071C16.1054 17.5196 16 17.2652 16 17C16 16.7348 16.1054 16.4804 16.2929 16.2929C16.4804 16.1054 16.7348 16 17 16H20.172C22.232 16 24.25 16.836 25.708 18.292C25.8011 18.3849 25.875 18.4952 25.9254 18.6167C25.9758 18.7382 26.0018 18.8685 26.0018 19C26.0018 19.1315 25.9758 19.2618 25.9254 19.3833C25.875 19.5048 25.8011 19.6151 25.708 19.708ZM25.708 13.708C25.6154 13.8016 25.5051 13.8759 25.3836 13.9266C25.2621 13.9773 25.1317 14.0035 25 14.0035C24.8683 14.0035 24.7379 13.9773 24.6164 13.9266C24.4949 13.8759 24.3846 13.8016 24.292 13.708C23.197 12.6186 21.7166 12.0049 20.172 12H17C16.7348 12 16.4804 11.8946 16.2929 11.7071C16.1054 11.5196 16 11.2652 16 11C16 10.7348 16.1054 10.4804 16.2929 10.2929C16.4804 10.1054 16.7348 10 17 10H20.172C22.232 10 24.25 10.836 25.708 12.292C25.8011 12.3849 25.875 12.4952 25.9254 12.6167C25.9758 12.7382 26.0018 12.8685 26.0018 13C26.0018 13.1315 25.9758 13.2618 25.9254 13.3833C25.875 13.5048 25.8011 13.6151 25.708 13.708ZM25.708 7.708C25.6154 7.80161 25.5051 7.87592 25.3836 7.92663C25.2621 7.97735 25.1317 8.00346 25 8.00346C24.8683 8.00346 24.7379 7.97735 24.6164 7.92663C24.4949 7.87592 24.3846 7.80161 24.292 7.708C23.197 6.61861 21.7166 6.0049 20.172 6H17C16.7348 6 16.4804 5.89464 16.2929 5.70711C16.1054 5.51957 16 5.26522 16 5C16 4.73478 16.1054 4.48043 16.2929 4.29289C16.4804 4.10536 16.7348 4 17 4H20.172C22.232 4 24.25 4.836 25.708 6.292C25.8011 6.38489 25.875 6.49524 25.9254 6.61673C25.9758 6.73822 26.0018 6.86847 26.0018 7C26.0018 7.13153 25.9758 7.26178 25.9254 7.38327C25.875 7.50476 25.8011 7.61511 25.708 7.708ZM39 18H35.828C34.294 18 32.792 18.622 31.708 19.708C31.6154 19.8016 31.5051 19.8759 31.3836 19.9266C31.2621 19.9774 31.1317 20.0035 31 20.0035C30.8683 20.0035 30.7379 19.9774 30.6164 19.9266C30.4949 19.8759 30.3846 19.8016 30.292 19.708C30.1989 19.6151 30.125 19.5048 30.0746 19.3833C30.0242 19.2618 29.9982 19.1315 29.9982 19C29.9982 18.8685 30.0242 18.7382 30.0746 18.6167C30.125 18.4952 30.1989 18.3849 30.292 18.292C31.7637 16.8291 33.7529 16.0055 35.828 16H39C39.2652 16 39.5196 16.1054 39.7071 16.2929C39.8946 16.4804 40 16.7348 40 17C40 17.2652 39.8946 17.5196 39.7071 17.7071C39.5196 17.8946 39.2652 18 39 18ZM39 12H35.828C34.294 12 32.792 12.622 31.708 13.708C31.6154 13.8016 31.5051 13.8759 31.3836 13.9266C31.2621 13.9773 31.1317 14.0035 31 14.0035C30.8683 14.0035 30.7379 13.9773 30.6164 13.9266C30.4949 13.8759 30.3846 13.8016 30.292 13.708C30.1989 13.6151 30.125 13.5048 30.0746 13.3833C30.0242 13.2618 29.9982 13.1315 29.9982 13C29.9982 12.8685 30.0242 12.7382 30.0746 12.6167C30.125 12.4952 30.1989 12.3849 30.292 12.292C31.7637 10.8291 33.7529 10.0055 35.828 10H39C39.2652 10 39.5196 10.1054 39.7071 10.2929C39.8946 10.4804 40 10.7348 40 11C40 11.2652 39.8946 11.5196 39.7071 11.7071C39.5196 11.8946 39.2652 12 39 12ZM39 6H35.828C34.294 6 32.792 6.622 31.708 7.708C31.6154 7.80161 31.5051 7.87592 31.3836 7.92663C31.2621 7.97735 31.1317 8.00346 31 8.00346C30.8683 8.00346 30.7379 7.97735 30.6164 7.92663C30.4949 7.87592 30.3846 7.80161 30.292 7.708C30.1989 7.61511 30.125 7.50476 30.0746 7.38327C30.0242 7.26178 29.9982 7.13153 29.9982 7C29.9982 6.86847 30.0242 6.73822 30.0746 6.61673C30.125 6.49524 30.1989 6.38489 30.292 6.292C31.7637 4.82905 33.7529 4.00548 35.828 4H39C39.2652 4 39.5196 4.10536 39.7071 4.29289C39.8946 4.48043 40 4.73478 40 5C40 5.26522 39.8946 5.51957 39.7071 5.70711C39.5196 5.89464 39.2652 6 39 6ZM19.416 45.462C18.9352 44.4302 18.1704 43.5567 17.2113 42.9436C16.2522 42.3305 15.1383 42.0032 14 42H6C2.692 42 0 44.692 0 48V50C0 50.5304 0.210714 51.0391 0.585786 51.4142C0.960859 51.7893 1.46957 52 2 52H16C16 49.296 17.356 46.91 19.416 45.462ZM50 42H42C39.6 42 37.544 43.424 36.584 45.462C37.6371 46.1968 38.4974 47.1748 39.0921 48.313C39.6868 49.4511 39.9982 50.7159 40 52H54C54.5304 52 55.0391 51.7893 55.4142 51.4142C55.7893 51.0391 56 50.5304 56 50V48C56 44.692 53.308 42 50 42Z" fill="white"/>
</svg>
