<svg width="52" height="52" viewBox="0 0 52 52" fill="none" xmlns="http://www.w3.org/2000/svg">
<path d="M43.5203 0H8.47974C5.95967 0 3.90942 2.05024 3.90942 4.57031V47.4297C3.90942 49.9498 5.95967 52 8.47974 52H43.5203C46.0404 52 48.0906 49.9498 48.0906 47.4297V4.57031C48.0906 2.05024 46.0404 0 43.5203 0ZM18.7275 42.7253C18.7275 43.5667 18.0454 44.2487 17.2041 44.2487H11.7194C10.878 44.2487 10.1959 43.5667 10.1959 42.7253V37.8941C10.1959 37.0527 10.8779 36.3706 11.7194 36.3706H17.2042C18.0455 36.3706 18.7276 37.0527 18.7276 37.8941L18.7275 42.7253ZM18.7275 31.0211C18.7275 31.8625 18.0454 32.5446 17.2041 32.5446H11.7194C10.8779 32.5446 10.1959 31.8626 10.1959 31.0211V26.1899C10.1959 25.3486 10.878 24.6665 11.7194 24.6665H17.2042C18.0455 24.6665 18.7276 25.3486 18.7276 26.1899L18.7275 31.0211ZM30.2659 42.7253C30.2659 43.5667 29.5838 44.2487 28.7425 44.2487H23.2577C22.4163 44.2487 21.7343 43.5667 21.7343 42.7253V37.8941C21.7343 37.0527 22.4163 36.3706 23.2577 36.3706H28.7425C29.5838 36.3706 30.2659 37.0527 30.2659 37.8941V42.7253ZM30.2659 31.0211C30.2659 31.8625 29.5838 32.5446 28.7425 32.5446H23.2577C22.4163 32.5446 21.7343 31.8626 21.7343 31.0211V26.1899C21.7343 25.3486 22.4163 24.6665 23.2577 24.6665H28.7425C29.5838 24.6665 30.2659 25.3486 30.2659 26.1899V31.0211ZM41.8041 42.7253C41.8041 43.5667 41.122 44.2487 40.2807 44.2487H34.7959C33.9546 44.2487 33.2725 43.5667 33.2725 42.7253V37.8941C33.2725 37.0527 33.9546 36.3706 34.7959 36.3706H40.2807C41.122 36.3706 41.8041 37.0527 41.8041 37.8941V42.7253ZM41.8041 31.0211C41.8041 31.8625 41.122 32.5446 40.2807 32.5446H34.7959C33.9546 32.5446 33.2725 31.8626 33.2725 31.0211V26.1899C33.2725 25.3486 33.9546 24.6665 34.7959 24.6665H40.2807C41.122 24.6665 41.8041 25.3486 41.8041 26.1899V31.0211ZM41.8041 16.3641C41.8041 17.2054 41.122 17.8875 40.2807 17.8875H11.7194C10.878 17.8875 10.1959 17.2054 10.1959 16.3641V9.84405C10.1959 9.0027 10.878 8.32061 11.7194 8.32061H40.2808C41.1221 8.32061 41.8042 9.0027 41.8042 9.84405L41.8041 16.3641Z" fill="white"/>
</svg>
