<svg width="20" height="20" viewBox="0 0 20 20" fill="none" xmlns="http://www.w3.org/2000/svg">
<g clip-path="url(#clip0_51_49)">
<path d="M7.5 0.347583C7.62202 0.495849 7.69677 0.677298 7.71459 0.868487C7.73242 1.05967 7.6925 1.25182 7.6 1.42008C6.87732 2.74693 6.49992 4.2342 6.5025 5.74508C6.5025 10.7713 10.6 14.8413 15.65 14.8413C16.3088 14.8413 16.95 14.7726 17.5662 14.6413C17.7552 14.6004 17.9519 14.6161 18.132 14.6863C18.3121 14.7566 18.4675 14.8783 18.5788 15.0363C18.6962 15.2006 18.7561 15.3992 18.7491 15.601C18.7421 15.8029 18.6686 15.9968 18.54 16.1526C17.5596 17.3569 16.3228 18.3272 14.9198 18.9928C13.5168 19.6584 11.9829 20.0025 10.43 20.0001C4.6675 20.0001 0 15.3576 0 9.63758C0 5.33258 2.6425 1.64008 6.405 0.0750832C6.59242 -0.00412698 6.80049 -0.0203845 6.99794 0.0287528C7.19539 0.0778901 7.37156 0.189769 7.5 0.347583Z" fill="black"/>
<path d="M13.4925 3.93501C13.5104 3.88087 13.545 3.83377 13.5912 3.80038C13.6374 3.76699 13.693 3.74902 13.75 3.74902C13.807 3.74902 13.8626 3.76699 13.9088 3.80038C13.9551 3.83377 13.9896 3.88087 14.0075 3.93501L14.4913 5.38751C14.7075 6.03501 15.215 6.54251 15.8625 6.75876L17.315 7.24251C17.3691 7.26043 17.4162 7.29496 17.4496 7.34118C17.483 7.38741 17.501 7.44298 17.501 7.50001C17.501 7.55703 17.483 7.6126 17.4496 7.65883C17.4162 7.70505 17.3691 7.73958 17.315 7.7575L15.8625 8.24125C15.5432 8.34765 15.253 8.52696 15.015 8.76497C14.777 9.00299 14.5977 9.29316 14.4913 9.6125L14.0075 11.065C13.9896 11.1191 13.9551 11.1662 13.9088 11.1996C13.8626 11.233 13.807 11.251 13.75 11.251C13.693 11.251 13.6374 11.233 13.5912 11.1996C13.545 11.1662 13.5104 11.1191 13.4925 11.065L13.0088 9.6125C12.9024 9.29316 12.7231 9.00299 12.485 8.76497C12.247 8.52696 11.9569 8.34765 11.6375 8.24125L10.185 7.7575C10.1309 7.73958 10.0838 7.70505 10.0504 7.65883C10.017 7.6126 9.99902 7.55703 9.99902 7.50001C9.99902 7.44298 10.017 7.38741 10.0504 7.34118C10.0838 7.29496 10.1309 7.26043 10.185 7.24251L11.6375 6.75876C11.9569 6.65236 12.247 6.47305 12.485 6.23504C12.7231 5.99702 12.9024 5.70685 13.0088 5.38751L13.4925 3.93501ZM17.3288 0.123755C17.3411 0.088163 17.3642 0.0573 17.3949 0.0354571C17.4256 0.0136142 17.4623 0.00187683 17.5 0.00187683C17.5377 0.00187683 17.5744 0.0136142 17.6051 0.0354571C17.6358 0.0573 17.6589 0.088163 17.6713 0.123755L17.9938 1.09126C18.1375 1.52376 18.4763 1.86251 18.9088 2.00626L19.8763 2.32876C19.9118 2.34109 19.9427 2.36422 19.9646 2.39491C19.9864 2.4256 19.9981 2.46233 19.9981 2.50001C19.9981 2.53768 19.9864 2.57441 19.9646 2.6051C19.9427 2.63579 19.9118 2.65892 19.8763 2.67126L18.9088 2.99376C18.6956 3.06466 18.5019 3.18428 18.3431 3.34311C18.1843 3.50194 18.0647 3.69562 17.9938 3.90876L17.6713 4.87626C17.6589 4.91185 17.6358 4.94271 17.6051 4.96455C17.5744 4.9864 17.5377 4.99813 17.5 4.99813C17.4623 4.99813 17.4256 4.9864 17.3949 4.96455C17.3642 4.94271 17.3411 4.91185 17.3288 4.87626L17.0063 3.90876C16.9354 3.69562 16.8157 3.50194 16.6569 3.34311C16.4981 3.18428 16.3044 3.06466 16.0913 2.99376L15.1238 2.67126C15.0882 2.65892 15.0573 2.63579 15.0355 2.6051C15.0136 2.57441 15.0019 2.53768 15.0019 2.50001C15.0019 2.46233 15.0136 2.4256 15.0355 2.39491C15.0573 2.36422 15.0882 2.34109 15.1238 2.32876L16.0913 2.00626C16.5238 1.86251 16.8625 1.52376 17.0063 1.09126L17.3288 0.125005V0.123755Z" fill="black"/>
</g>
<defs>
<clipPath id="clip0_51_49">
<rect width="20" height="20" fill="white"/>
</clipPath>
</defs>
</svg>
