<svg width="26" height="26" viewBox="0 0 26 26" fill="none" xmlns="http://www.w3.org/2000/svg">
<path d="M9.75 21.125C9.75 22.9206 7.93 24.375 5.6875 24.375C3.445 24.375 1.625 22.9206 1.625 21.125C1.625 19.331 3.445 17.875 5.6875 17.875C7.93 17.875 9.75 19.331 9.75 21.125ZM24.375 17.875C24.375 19.6706 22.555 21.125 20.3125 21.125C18.07 21.125 16.25 19.6706 16.25 17.875C16.25 16.0794 18.07 14.625 20.3125 14.625C22.555 14.625 24.375 16.0794 24.375 17.875Z" fill="#242323"/>
<path fill-rule="evenodd" clip-rule="evenodd" d="M22.75 17.875V3.25H24.375V17.875H22.75ZM9.75 4.875V21.125H8.125V4.875H9.75Z" fill="#242323"/>
<path d="M8.125 4.72062C8.12499 4.31777 8.27463 3.92929 8.54486 3.63053C8.8151 3.33176 9.18667 3.14403 9.5875 3.10375L22.5875 1.80375C22.8135 1.78104 23.0417 1.80594 23.2574 1.87686C23.4732 1.94778 23.6717 2.06313 23.8401 2.21548C24.0085 2.36782 24.1431 2.55378 24.2353 2.76136C24.3274 2.96893 24.375 3.19352 24.375 3.42062V4.875L8.125 6.5V4.72062Z" fill="#242323"/>
</svg>
