<svg width="56" height="56" viewBox="0 0 56 56" fill="none" xmlns="http://www.w3.org/2000/svg">
<g clip-path="url(#clip0_51_1204)">
<path fill-rule="evenodd" clip-rule="evenodd" d="M48.7132 29.3395V49.7672C48.7132 50.2006 48.3626 50.5512 47.9292 50.5512H31.4125C30.8727 50.5512 30.2824 50.7416 29.7784 51.1101C29.4 51.3852 29.0934 51.7475 28.8847 52.1662C28.6394 52.659 28.3493 52.8886 28.001 52.8942C27.7445 52.8987 27.4511 52.8853 27.1487 52.2368C26.9401 51.7887 26.621 51.4009 26.2213 51.1101C25.7173 50.7427 25.1271 50.5512 24.5872 50.5512H8.07061C7.63717 50.5512 7.28661 50.2006 7.28661 49.7672V29.3395H4.44629V53.3915H20.9842C22.2072 53.3915 22.6037 54.2763 23.0013 55.1611C23.1895 55.58 23.3776 55.9989 23.5916 55.9989H32.4093C32.6232 55.9989 32.8114 55.58 32.9996 55.1611C33.3972 54.2763 33.7948 53.3915 35.0167 53.3915H51.5535V29.3395H48.7132ZM34.8016 13.4624C33.1272 11.788 30.8144 10.752 28.2586 10.752C25.7039 10.752 23.39 11.788 21.7156 13.4624C20.0412 15.1368 19.0052 17.4496 19.0052 20.0054C19.0052 21.8814 19.7085 23.6376 20.6684 25.3042C20.6885 25.3344 20.7076 25.3669 20.7232 25.3994C21.3672 26.5048 22.121 27.5699 22.8524 28.6037C23.0237 28.8467 23.1951 29.0886 23.3362 29.2891H33.2146C33.3714 29.064 33.4912 28.8938 33.6122 28.7224C35.477 26.0747 37.5098 23.1862 37.5098 20.0066C37.512 17.4496 36.476 15.1368 34.8016 13.4624ZM40.386 5.58656C40.6917 5.2808 41.189 5.2808 41.4948 5.58656C41.8005 5.89232 41.8005 6.3896 41.4948 6.69536L38.7194 9.4696C38.4136 9.77536 37.9164 9.77536 37.6106 9.4696C37.3048 9.16384 37.3048 8.66656 37.6106 8.3608L40.386 5.58656ZM46.3007 18.2974C46.7341 18.2974 47.0847 18.648 47.0847 19.0814C47.0847 19.5149 46.7341 19.8654 46.3007 19.8654H42.3762C41.9428 19.8654 41.5922 19.5149 41.5922 19.0814C41.5922 18.648 41.9428 18.2974 42.3762 18.2974H46.3007ZM14.505 6.69536C14.1992 6.3896 14.1992 5.89232 14.505 5.58656C14.8108 5.2808 15.308 5.2808 15.6138 5.58656L18.3892 8.3608C18.6949 8.66656 18.6949 9.16384 18.3892 9.4696C18.0834 9.77536 17.5861 9.77536 17.2804 9.4696L14.505 6.69536ZM9.69909 19.8621C9.26789 19.8621 8.91845 19.5126 8.91845 19.0814C8.91845 18.6502 9.26789 18.3008 9.69909 18.3008H13.6236C14.0548 18.3008 14.4042 18.6502 14.4042 19.0814C14.4042 19.5126 14.0548 19.8621 13.6236 19.8621H9.69909ZM27.2192 0.78064C27.2192 0.34944 27.5687 0 27.9999 0C28.4311 0 28.7805 0.34944 28.7805 0.78064V4.70512C28.7805 5.13632 28.4311 5.48576 27.9999 5.48576C27.5687 5.48576 27.2192 5.13632 27.2192 4.70512V0.78064ZM34.1005 30.856C35.1578 30.856 35.1578 34.608 34.1005 34.608H22.4189C21.3616 34.608 21.3616 30.856 22.4189 30.856H34.1005ZM22.7852 36.176L23.7204 38.7162C23.9914 39.452 24.3487 40.0366 24.772 40.4477C25.2615 40.9237 25.8293 41.1734 26.452 41.1734H27.2159V49.905C27.1912 49.8859 27.1655 49.8669 27.1397 49.8478C26.3591 49.2789 25.4373 48.9832 24.5872 48.9832H8.85461V26.5272H19.5775C20.1968 27.5453 20.8879 28.5242 21.5621 29.4773C19.3109 30.5648 19.5495 36.176 22.4178 36.176H22.7852ZM32.0655 36.176L31.3285 38.1774C31.1381 38.6926 30.9108 39.0802 30.6565 39.3277C30.4695 39.5102 30.269 39.6054 30.0663 39.6054H26.452C26.2493 39.6054 26.05 39.5091 25.8618 39.3277C25.6087 39.0813 25.3802 38.6938 25.1898 38.1774L24.454 36.176H32.0655ZM34.9853 29.4918C35.6573 28.5365 36.3461 27.552 36.9621 26.5272H47.1452V48.9832H31.4125C30.5624 48.9832 29.6407 49.2789 28.86 49.8478C28.8343 49.8669 28.8096 49.8859 28.7839 49.905V41.1734H30.0663C30.689 41.1734 31.258 40.9237 31.7463 40.4477C32.1696 40.0366 32.5269 39.452 32.798 38.7162L33.7332 36.176H34.1005C36.9599 36.176 37.2029 30.6118 34.9853 29.4918ZM12.8452 44.4181C12.4117 44.4181 12.0612 44.0675 12.0612 43.6341C12.0612 43.2006 12.4117 42.8501 12.8452 42.8501H18.2615C18.6949 42.8501 19.0455 43.2006 19.0455 43.6341C19.0455 44.0675 18.6949 44.4181 18.2615 44.4181H12.8452ZM12.8452 39.3344C12.4117 39.3344 12.0612 38.9838 12.0612 38.5504C12.0612 38.117 12.4117 37.7664 12.8452 37.7664H17.1919C17.6253 37.7664 17.9759 38.117 17.9759 38.5504C17.9759 38.9838 17.6253 39.3344 17.1919 39.3344H12.8452ZM42.9653 42.849C43.3988 42.849 43.7493 43.1995 43.7493 43.633C43.7493 44.0664 43.3988 44.417 42.9653 44.417H37.549C37.1156 44.417 36.765 44.0664 36.765 43.633C36.765 43.1995 37.1156 42.849 37.549 42.849H42.9653ZM42.9653 37.7664C43.3988 37.7664 43.7493 38.117 43.7493 38.5504C43.7493 38.9838 43.3988 39.3344 42.9653 39.3344H38.6186C38.1852 39.3344 37.8346 38.9838 37.8346 38.5504C37.8346 38.117 38.1852 37.7664 38.6186 37.7664H42.9653Z" fill="white"/>
</g>
<defs>
<clipPath id="clip0_51_1204">
<rect width="56" height="56" fill="white"/>
</clipPath>
</defs>
</svg>
