<svg width="52" height="52" viewBox="0 0 52 52" fill="none" xmlns="http://www.w3.org/2000/svg">
<g clip-path="url(#clip0_51_1217)">
<path d="M1.60337 6.70363L3.7573 4.5497L8.2422 9.03449L6.08827 11.1884L1.60337 6.70363ZM0 15.2344H6.2013V18.2812H0V15.2344ZM1.63709 26.7739L6.11741 22.2935L8.27135 24.4474L3.79102 28.9277L1.63709 26.7739ZM43.7508 9.03906L48.2356 4.55406L50.3895 6.7081L45.9046 11.1929L43.7508 9.03906ZM45.7987 15.2344H52V18.2812H45.7987V15.2344ZM43.7176 24.4519L45.8715 22.2979L50.3518 26.7783L48.198 28.9322L43.7176 24.4519ZM26 52C30.1999 52 33.6172 48.5827 33.6172 44.3828V39.6094H18.3828V44.3828C18.3828 48.5827 21.8001 52 26 52ZM42.5019 13.7987C41.1183 5.80369 34.178 0 26 0C17.822 0 10.8817 5.80369 9.49813 13.8002C8.53998 19.3405 10.3715 24.9567 14.3972 28.8204C16.5537 30.8907 17.8643 33.6563 18.2246 36.5625H33.7756C34.1364 33.6551 35.4467 30.8903 37.6028 28.8204C41.6286 24.9567 43.46 19.3405 42.5019 13.7987ZM27.5234 27.4219H24.4766V24.375H27.5234V27.4219ZM28.7079 17.3929C27.9661 17.939 27.5234 18.8136 27.5234 19.7328V21.3281H24.4766V19.7328C24.4766 17.8491 25.383 16.0572 26.9014 14.9393C27.2967 14.6483 27.5234 14.2006 27.5234 13.7109C27.5234 12.8709 26.84 12.1875 26 12.1875C25.16 12.1875 24.4766 12.8709 24.4766 13.7109V15.2344H21.4297V13.7109C21.4297 11.1909 23.4799 9.14062 26 9.14062C28.5201 9.14062 30.5703 11.1909 30.5703 13.7109C30.5703 15.1578 29.8741 16.5343 28.7079 17.3929Z" fill="white"/>
</g>
<defs>
<clipPath id="clip0_51_1217">
<rect width="52" height="52" fill="white"/>
</clipPath>
</defs>
</svg>
