<svg width="52" height="52" viewBox="0 0 52 52" fill="none" xmlns="http://www.w3.org/2000/svg">
<path fill-rule="evenodd" clip-rule="evenodd" d="M33 28C30.2386 28 28 30.2386 28 33V47C28 49.7614 30.2386 52 33 52H47C49.7614 52 52 49.7614 52 47V33C52 30.2386 49.7614 28 47 28H33ZM42.3834 35.914C41.8141 35.3913 41.0534 35.13 40.1014 35.13C39.4761 35.13 38.9254 35.2513 38.4494 35.494C37.9827 35.7367 37.6234 36.0773 37.3714 36.516C37.1194 36.9547 36.9934 37.454 36.9934 38.014H38.4914C38.4914 37.5287 38.6361 37.1507 38.9254 36.88C39.2147 36.6093 39.6114 36.474 40.1154 36.474C40.6194 36.474 41.0114 36.614 41.2914 36.894C41.5807 37.174 41.7254 37.5613 41.7254 38.056C41.7254 38.7373 41.4827 39.1993 40.9974 39.442C40.5214 39.6847 39.8307 39.806 38.9254 39.806H38.4634L38.5334 42.004H39.9194L39.9754 40.898C40.9647 40.898 41.7581 40.66 42.3554 40.184C42.9527 39.708 43.2514 38.9987 43.2514 38.056C43.2514 37.1507 42.9621 36.4367 42.3834 35.914ZM38.4774 44.804C38.6734 45 38.9161 45.098 39.2054 45.098C39.4854 45.098 39.7234 45 39.9194 44.804C40.1154 44.608 40.2134 44.3653 40.2134 44.076C40.2134 43.7867 40.1154 43.544 39.9194 43.348C39.7234 43.152 39.4854 43.054 39.2054 43.054C38.9161 43.054 38.6734 43.152 38.4774 43.348C38.2814 43.544 38.1834 43.7867 38.1834 44.076C38.1834 44.3653 38.2814 44.608 38.4774 44.804Z" fill="white"/>
<path fill-rule="evenodd" clip-rule="evenodd" d="M0 5C0 2.23858 2.23858 0 5 0H19C21.7614 0 24 2.23858 24 5V19C24 21.7614 21.7614 24 19 24H5C2.23858 24 0 21.7614 0 19V5ZM33 0C30.2386 0 28 2.23858 28 5V19C28 21.7614 30.2386 24 33 24H47C49.7614 24 52 21.7614 52 19V5C52 2.23858 49.7614 0 47 0H33ZM38.6593 8.166H43.3493V6.766H37.1893V12.66H38.7013C38.8413 12.268 39.0653 11.96 39.3733 11.736C39.6907 11.5027 40.078 11.386 40.5353 11.386C41.1887 11.386 41.6833 11.568 42.0193 11.932C42.3553 12.2867 42.5233 12.8 42.5233 13.472C42.5233 14.1347 42.3553 14.6667 42.0193 15.068C41.6927 15.4693 41.198 15.67 40.5353 15.67C40.0033 15.67 39.56 15.544 39.2053 15.292C38.8507 15.0307 38.622 14.6807 38.5193 14.242H36.9653C37.0867 15.0727 37.4553 15.74 38.0713 16.244C38.6873 16.748 39.504 17 40.5213 17C41.2867 17 41.9307 16.846 42.4533 16.538C42.9853 16.23 43.382 15.81 43.6433 15.278C43.914 14.7367 44.0493 14.1207 44.0493 13.43C44.0493 12.8607 43.942 12.3193 43.7273 11.806C43.522 11.2927 43.172 10.868 42.6773 10.532C42.192 10.196 41.5573 10.028 40.7733 10.028C40.3347 10.028 39.9193 10.1167 39.5273 10.294C39.1447 10.4713 38.8553 10.6907 38.6593 10.952V8.166ZM14.1832 7.914C13.6139 7.39133 12.8532 7.13 11.9012 7.13C11.2759 7.13 10.7252 7.25133 10.2492 7.494C9.78254 7.73667 9.4232 8.07733 9.1712 8.516C8.9192 8.95467 8.7932 9.454 8.7932 10.014H10.2912C10.2912 9.52867 10.4359 9.15067 10.7252 8.88C11.0145 8.60933 11.4112 8.474 11.9152 8.474C12.4192 8.474 12.8112 8.614 13.0912 8.894C13.3805 9.174 13.5252 9.56133 13.5252 10.056C13.5252 10.7373 13.2825 11.1993 12.7972 11.442C12.3212 11.6847 11.6305 11.806 10.7252 11.806H10.2632L10.3332 14.004H11.7192L11.7752 12.898C12.7645 12.898 13.5579 12.66 14.1552 12.184C14.7525 11.708 15.0512 10.9987 15.0512 10.056C15.0512 9.15067 14.7619 8.43667 14.1832 7.914ZM10.2772 16.804C10.4732 17 10.7159 17.098 11.0052 17.098C11.2852 17.098 11.5232 17 11.7192 16.804C11.9152 16.608 12.0132 16.3653 12.0132 16.076C12.0132 15.7867 11.9152 15.544 11.7192 15.348C11.5232 15.152 11.2852 15.054 11.0052 15.054C10.7159 15.054 10.4732 15.152 10.2772 15.348C10.0812 15.544 9.9832 15.7867 9.9832 16.076C9.9832 16.3653 10.0812 16.608 10.2772 16.804ZM0 33C0 30.2386 2.23858 28 5 28H19C21.7614 28 24 30.2386 24 33V47C24 49.7614 21.7614 52 19 52H5C2.23858 52 0 49.7614 0 47V33ZM10.6591 36.166H15.3491V34.766H9.1891V40.66H10.7011C10.8411 40.268 11.0651 39.96 11.3731 39.736C11.6904 39.5027 12.0778 39.386 12.5351 39.386C13.1884 39.386 13.6831 39.568 14.0191 39.932C14.3551 40.2867 14.5231 40.8 14.5231 41.472C14.5231 42.1347 14.3551 42.6667 14.0191 43.068C13.6924 43.4693 13.1978 43.67 12.5351 43.67C12.0031 43.67 11.5598 43.544 11.2051 43.292C10.8504 43.0307 10.6218 42.6807 10.5191 42.242H8.9651C9.08644 43.0727 9.4551 43.74 10.0711 44.244C10.6871 44.748 11.5038 45 12.5211 45C13.2864 45 13.9304 44.846 14.4531 44.538C14.9851 44.23 15.3818 43.81 15.6431 43.278C15.9138 42.7367 16.0491 42.1207 16.0491 41.43C16.0491 40.8607 15.9418 40.3193 15.7271 39.806C15.5218 39.2927 15.1718 38.868 14.6771 38.532C14.1918 38.196 13.5571 38.028 12.7731 38.028C12.3344 38.028 11.9191 38.1167 11.5271 38.294C11.1444 38.4713 10.8551 38.6907 10.6591 38.952V36.166Z" fill="white"/>
</svg>
