<svg width="26" height="26" viewBox="0 0 26 26" fill="none" xmlns="http://www.w3.org/2000/svg">
<path d="M23.7331 9.62C23.259 9.55113 22.8066 9.3762 22.4094 9.10823C22.0123 8.84025 21.6808 8.48614 21.4395 8.07226C21.1982 7.65838 21.0533 7.1954 21.0158 6.7178C20.9782 6.24019 21.0489 5.76026 21.2225 5.31375C21.3329 5.02184 21.3492 4.70271 21.269 4.40109C21.1889 4.09947 21.0164 3.8305 20.7756 3.63187C19.7129 2.73948 18.5033 2.03843 17.2006 1.56C16.904 1.44981 16.5802 1.43604 16.2753 1.52066C15.9704 1.60528 15.6999 1.78396 15.5025 2.03125C15.2054 2.41122 14.8256 2.71853 14.392 2.92988C13.9584 3.14124 13.4824 3.25108 13 3.25108C12.5177 3.25108 12.0416 3.14124 11.608 2.92988C11.1744 2.71853 10.7947 2.41122 10.4975 2.03125C10.3001 1.78396 10.0297 1.60528 9.72476 1.52066C9.41985 1.43604 9.09602 1.44981 8.79939 1.56C7.59662 2.00171 6.47206 2.63256 5.46814 3.42875C5.21508 3.62908 5.03281 3.90517 4.94801 4.21659C4.86321 4.52801 4.88034 4.8584 4.99689 5.15938C5.18438 5.6177 5.26184 6.11358 5.22307 6.60725C5.1843 7.10092 5.03036 7.57863 4.77362 8.00206C4.51687 8.42549 4.16446 8.78285 3.74466 9.04549C3.32486 9.30812 2.84935 9.46871 2.35627 9.51438C2.03615 9.5486 1.73548 9.68471 1.49852 9.90265C1.26156 10.1206 1.10084 10.4089 1.04002 10.725C0.888728 11.4739 0.812518 12.236 0.812518 13C0.811406 13.6396 0.863039 14.2782 0.966893 14.9094C1.01858 15.2357 1.17631 15.5358 1.4157 15.7635C1.65509 15.9911 1.96281 16.1335 2.29127 16.1687C2.79518 16.216 3.28043 16.3833 3.7064 16.6567C4.13238 16.93 4.48669 17.3014 4.73968 17.7397C4.99267 18.1781 5.13698 18.6706 5.16052 19.1762C5.18407 19.6818 5.08617 20.1857 4.87502 20.6456C4.73683 20.9448 4.70256 21.2816 4.77763 21.6025C4.8527 21.9234 5.03282 22.21 5.28939 22.4169C6.34573 23.2931 7.54373 23.9827 8.83189 24.4563C8.99662 24.5133 9.16945 24.5435 9.34377 24.5456C9.58278 24.5451 9.81818 24.4873 10.0302 24.377C10.2423 24.2667 10.4248 24.1072 10.5625 23.9119C10.8521 23.49 11.2403 23.1451 11.6934 22.9072C12.1465 22.6693 12.6508 22.5457 13.1625 22.5469C13.6583 22.5475 14.1472 22.6639 14.5901 22.8868C15.033 23.1096 15.4178 23.4328 15.7138 23.8306C15.9106 24.0953 16.1895 24.2874 16.5069 24.377C16.8244 24.4667 17.1625 24.4488 17.4688 24.3263C18.6466 23.8522 19.7432 23.197 20.7188 22.3844C20.9638 22.1818 21.1383 21.9066 21.2172 21.5986C21.296 21.2905 21.2751 20.9654 21.1575 20.67C20.9664 20.2176 20.8831 19.7269 20.9141 19.2368C20.9451 18.7467 21.0897 18.2704 21.3363 17.8457C21.5829 17.421 21.9249 17.0595 22.3352 16.7896C22.7456 16.5197 23.213 16.3489 23.7006 16.2906C24.0169 16.2469 24.3109 16.1036 24.5403 15.8816C24.7696 15.6596 24.9223 15.3703 24.9763 15.0556C25.1068 14.3779 25.1774 13.6901 25.1875 13C25.1877 12.2721 25.1197 11.5458 24.9844 10.8306C24.9295 10.5229 24.7791 10.2403 24.5545 10.023C24.3299 9.8057 24.0425 9.66468 23.7331 9.62ZM17.0625 13C17.0625 13.8035 16.8243 14.5889 16.3779 15.257C15.9315 15.9251 15.297 16.4458 14.5547 16.7533C13.8123 17.0607 12.9955 17.1412 12.2075 16.9844C11.4194 16.8277 10.6955 16.4408 10.1274 15.8726C9.55925 15.3045 9.17233 14.5806 9.01558 13.7926C8.85882 13.0045 8.93927 12.1877 9.24676 11.4453C9.55424 10.703 10.0749 10.0685 10.743 9.62216C11.4111 9.17576 12.1965 8.9375 13 8.9375C14.0775 8.9375 15.1108 9.36551 15.8726 10.1274C16.6345 10.8892 17.0625 11.9226 17.0625 13Z" fill="white"/>
</svg>
