<svg width="23" height="23" viewBox="0 0 23 23" fill="none" xmlns="http://www.w3.org/2000/svg">
<path d="M15.8126 3.5939C15.8125 2.75071 16.1089 1.93433 16.6499 1.28759C17.191 0.640849 17.9422 0.204938 18.7721 0.0561183C19.6021 -0.0927008 20.4579 0.0550492 21.1899 0.473518C21.922 0.891988 22.4835 1.55453 22.7764 2.34522C23.0693 3.13592 23.0748 4.00442 22.792 4.79877C22.5092 5.59312 21.9561 6.26274 21.2294 6.69048C20.5028 7.11821 19.6489 7.27682 18.8171 7.13856C17.9853 7.00029 17.2286 6.57396 16.6794 5.93415L7.02233 10.4191C7.24433 11.1227 7.24433 11.8776 7.02233 12.5811L16.6794 17.0661C17.26 16.391 18.0705 15.9554 18.9539 15.8438C19.8372 15.7321 20.7306 15.9524 21.4608 16.462C22.1911 16.9715 22.7061 17.7339 22.9062 18.6016C23.1063 19.4692 22.9772 20.3802 22.5439 21.1581C22.1105 21.936 21.4039 22.5252 20.5608 22.8118C19.7178 23.0983 18.7984 23.0616 17.9808 22.7089C17.1632 22.3562 16.5057 21.7125 16.1357 20.9027C15.7656 20.0928 15.7094 19.1744 15.9779 18.3254L6.32083 13.8404C5.84276 14.3975 5.20554 14.7949 4.49488 14.979C3.78422 15.1632 3.03422 15.1252 2.34576 14.8703C1.6573 14.6154 1.06342 14.1558 0.644004 13.5533C0.224587 12.9508 -0.000244141 12.2343 -0.000244141 11.5001C-0.000244141 10.766 0.224587 10.0495 0.644004 9.44698C1.06342 8.84446 1.6573 8.38485 2.34576 8.12996C3.03422 7.87507 3.78422 7.83714 4.49488 8.02127C5.20554 8.2054 5.84276 8.60276 6.32083 9.1599L15.9779 4.6749C15.868 4.32511 15.8123 3.96055 15.8126 3.5939Z" fill="#242323"/>
</svg>
