<svg width="54" height="54" viewBox="0 0 54 54" fill="none" xmlns="http://www.w3.org/2000/svg">
<path d="M38.6125 28.0814H39.9458C39.2525 21.9189 34.393 17.0594 28.2305 16.366V17.6993C28.2305 18.5188 27.567 19.1824 26.7473 19.1824C25.9278 19.1824 25.2642 18.5188 25.2642 17.6993V16.366C19.1017 17.0594 14.2422 21.9189 13.5488 28.0814H14.8821C15.7018 28.0814 16.3652 28.745 16.3652 29.5645C16.3652 30.384 15.7018 31.0477 14.8821 31.0477H13.5488C14.2178 36.9945 19.3069 41.7474 25.1653 42.6972V41.4297C25.1653 40.6102 25.8289 39.9466 26.6484 39.9466C27.4682 39.9466 28.1316 40.6102 28.1316 41.4297V42.8288C34.5972 42.4201 39.2283 37.4259 39.9458 31.0477H38.6125C37.7931 31.0477 37.1294 30.384 37.1294 29.5645C37.1294 28.745 37.7931 28.0814 38.6125 28.0814ZM32.6799 31.0477H26.7473C25.9278 31.0477 25.2642 30.384 25.2642 29.5645V23.6319C25.2642 22.8124 25.9278 22.1487 26.7473 22.1487C27.567 22.1487 28.2305 22.8124 28.2305 23.6319V28.0814H32.6799C33.4997 28.0814 34.1631 28.745 34.1631 29.5645C34.1631 30.384 33.4997 31.0477 32.6799 31.0477Z" fill="white"/>
<path d="M44.0399 15.5976L44.9997 14.6373C46.7418 12.8951 46.7362 10.0802 45.0012 8.34553C43.3227 6.66676 40.3895 6.66399 38.7083 8.34553L37.1436 9.90992C35.2983 8.92985 33.3035 8.195 31.1968 7.76556V4.25203H32.6799C33.4996 4.25203 34.1631 3.58837 34.1631 2.76887C34.1631 1.94938 33.4996 1.28572 32.6799 1.28572H20.8147C19.9952 1.28572 19.3315 1.94938 19.3315 2.76887C19.3315 3.58837 19.9952 4.25203 20.8147 4.25203H22.2978V7.76556C20.1914 8.19508 18.1963 8.92985 16.351 9.91L14.7864 8.34553C13.1051 6.66399 10.1703 6.66834 8.49463 8.34427C6.75993 10.0793 6.75257 12.8951 8.49463 14.6372L9.45468 15.5975C6.36197 19.4192 4.5 24.2763 4.5 29.5645C4.5 41.8321 14.4798 51.9107 26.7473 51.9107C39.0152 51.9107 48.9946 41.8321 48.9946 29.5645C48.9946 24.2762 47.1326 19.4191 44.0399 15.5976ZM26.7473 45.9781C26.5725 45.9781 26.4028 45.957 26.2292 45.9518C26.1837 45.9562 26.1448 45.9781 26.0984 45.9781C26.0212 45.9781 25.9547 45.9456 25.8806 45.9346C17.2885 45.4793 10.4326 38.2681 10.4326 29.5645C10.4326 20.5685 17.7513 13.2498 26.7473 13.2498C35.7433 13.2498 43.062 20.5685 43.062 29.5645C43.062 38.5605 35.7433 45.9781 26.7473 45.9781Z" fill="white"/>
</svg>
