<svg width="31" height="31" viewBox="0 0 31 31" fill="none" xmlns="http://www.w3.org/2000/svg">
<g clip-path="url(#clip0_48_232)">
<path d="M8.80594 13.0084L7.96313 15.5H5.8125L9.42013 5.8125H11.9079L15.5 15.5H13.2389L12.3961 13.0084H8.80594ZM11.9718 11.5824L10.6562 7.66475H10.5613L9.24575 11.5824H11.9718Z" fill="#242323"/>
<path d="M0 3.875C0 2.84729 0.408258 1.86166 1.13496 1.13496C1.86166 0.408258 2.84729 0 3.875 0L17.4375 0C18.4652 0 19.4508 0.408258 20.1775 1.13496C20.9042 1.86166 21.3125 2.84729 21.3125 3.875V9.6875H27.125C28.1527 9.6875 29.1383 10.0958 29.865 10.8225C30.5917 11.5492 31 12.5348 31 13.5625V27.125C31 28.1527 30.5917 29.1383 29.865 29.865C29.1383 30.5917 28.1527 31 27.125 31H13.5625C12.5348 31 11.5492 30.5917 10.8225 29.865C10.0958 29.1383 9.6875 28.1527 9.6875 27.125V21.3125H3.875C2.84729 21.3125 1.86166 20.9042 1.13496 20.1775C0.408258 19.4508 0 18.4652 0 17.4375V3.875ZM3.875 1.9375C3.36114 1.9375 2.86833 2.14163 2.50498 2.50498C2.14163 2.86833 1.9375 3.36114 1.9375 3.875V17.4375C1.9375 17.9514 2.14163 18.4442 2.50498 18.8075C2.86833 19.1709 3.36114 19.375 3.875 19.375H17.4375C17.9514 19.375 18.4442 19.1709 18.8075 18.8075C19.1709 18.4442 19.375 17.9514 19.375 17.4375V3.875C19.375 3.36114 19.1709 2.86833 18.8075 2.50498C18.4442 2.14163 17.9514 1.9375 17.4375 1.9375H3.875ZM17.7049 21.3028C18.0788 21.886 18.4837 22.4324 18.9255 22.9419C17.4762 24.056 15.6841 24.8814 13.5625 25.4452C13.9074 25.8656 14.4363 26.6755 14.6378 27.125C16.8175 26.4294 18.6678 25.4897 20.2294 24.2304C21.7349 25.5188 23.5988 26.4876 25.9063 27.0824C26.164 26.5903 26.7084 25.7784 27.125 25.358C24.9453 24.8678 23.1396 24.0134 21.6613 22.8703C22.9807 21.4229 24.0289 19.6714 24.8019 17.5286H27.125V15.5H21.3125V17.5286H22.7947C22.1786 19.1638 21.3609 20.5239 20.3302 21.6554C20.0455 21.3521 19.7771 21.0339 19.5261 20.7022C18.9794 21.0527 18.3529 21.2594 17.7049 21.3028Z" fill="#242323"/>
</g>
<defs>
<clipPath id="clip0_48_232">
<rect width="31" height="31" fill="white"/>
</clipPath>
</defs>
</svg>
