<svg width="26" height="26" viewBox="0 0 26 26" fill="none" xmlns="http://www.w3.org/2000/svg">
<path d="M18.746 22.7663C20.0306 21.4852 21.0493 19.9629 21.7437 18.2869C22.4381 16.6109 22.7944 14.8142 22.7922 13C22.7944 11.1858 22.4381 9.3891 21.7437 7.71308C21.0493 6.03705 20.0306 4.51478 18.746 3.23375L17.5955 4.38262C18.7289 5.51296 19.6278 6.85616 20.2405 8.33502C20.8532 9.81388 21.1676 11.3992 21.1656 13C21.1656 16.3654 19.8006 19.4123 17.5955 21.6174L18.746 22.7663Z" fill="black"/>
<path d="M16.4466 20.4685C17.4289 19.4888 18.2079 18.3247 18.7389 17.043C19.2698 15.7613 19.5423 14.3873 19.5406 13C19.5423 11.6127 19.2698 10.2387 18.7389 8.95701C18.2079 7.67532 17.4289 6.51118 16.4466 5.53149L15.2977 6.68037C16.1289 7.50936 16.788 8.49442 17.2373 9.57895C17.6866 10.6635 17.9171 11.8261 17.9156 13C17.9175 14.1741 17.6873 15.3369 17.2384 16.4217C16.7894 17.5065 16.1304 18.4919 15.2994 19.3212L16.4466 20.4685Z" fill="black"/>
<path d="M14.1489 18.1708C14.8289 17.4925 15.3682 16.6865 15.7358 15.7991C16.1033 14.9117 16.2919 13.9605 16.2906 13C16.2919 12.0395 16.1033 11.0883 15.7358 10.2009C15.3682 9.31353 14.8289 8.50754 14.1489 7.82925L13 8.97813C13.5289 9.50571 13.9483 10.1326 14.2342 10.8228C14.52 11.513 14.6667 12.2529 14.6656 13C14.6666 13.747 14.5199 14.4869 14.2341 15.1771C13.9482 15.8673 13.5288 16.4942 13 17.0219L14.1489 18.1708ZM10.9151 5.76875C11.0528 5.83507 11.169 5.93885 11.2503 6.0682C11.3316 6.19754 11.3749 6.34721 11.375 6.5V19.5C11.3748 19.6529 11.3314 19.8026 11.2499 19.932C11.1684 20.0613 11.0521 20.1651 10.9143 20.2312C10.7765 20.2974 10.6228 20.3234 10.4708 20.3062C10.3189 20.2889 10.175 20.2292 10.0555 20.1338L6.21563 17.0625H2.4375C2.22201 17.0625 2.01535 16.9769 1.86298 16.8245C1.7106 16.6722 1.625 16.4655 1.625 16.25V9.75C1.625 9.53451 1.7106 9.32785 1.86298 9.17548C2.01535 9.02311 2.22201 8.9375 2.4375 8.9375H6.21563L10.0555 5.86625C10.1751 5.77068 10.3192 5.71083 10.4713 5.69358C10.6233 5.67633 10.7772 5.70239 10.9151 5.76875Z" fill="black"/>
</svg>
